<svg width="33" height="33" viewBox="0 0 33 33" fill="none" xmlns="http://www.w3.org/2000/svg">
<path d="M30.5321 7.63106C25.5957 -0.000252264 15.5172 -2.26902 7.70122 2.47477C0.0909388 7.21855 -2.37726 17.5311 2.55914 25.1624L2.9705 25.7812L1.32504 31.9687L7.49553 30.3187L8.11259 30.7312C10.7865 32.175 13.666 33 16.5456 33C19.6308 33 22.7161 32.175 25.39 30.525C33.0003 25.5749 35.2628 15.4686 30.5321 7.63106ZM26.2127 23.5124C25.39 24.7499 24.3616 25.5749 22.9218 25.7812C22.099 25.7812 21.0706 26.1937 16.957 24.5437C13.4603 22.8937 10.5808 20.2124 8.52395 17.1186C7.28985 15.6749 6.6728 13.8186 6.46712 11.9623C6.46712 10.3123 7.08417 8.86857 8.11259 7.83731C8.52395 7.42481 8.93532 7.21855 9.34668 7.21855H10.3751C10.7865 7.21855 11.1978 7.21855 11.4035 8.04356C11.8149 9.07482 12.8433 11.5498 12.8433 11.7561C13.049 11.9623 13.049 12.3748 12.8433 12.5811C13.049 12.9936 12.8433 13.4061 12.6376 13.6124C12.4319 13.8186 12.2262 14.2311 12.0206 14.4374C11.6092 14.6436 11.4035 15.0561 11.6092 15.4686C12.4319 16.7061 13.4603 17.9436 14.4888 18.9749C15.7229 20.0062 16.957 20.8312 18.3967 21.4499C18.8081 21.6562 19.2195 21.6562 19.4252 21.2437C19.6308 20.8312 20.6593 19.7999 21.0706 19.3874C21.482 18.9749 21.6877 18.9749 22.099 19.1811L25.39 20.8312C25.8013 21.0374 26.2127 21.2437 26.4184 21.4499C26.6241 22.0687 26.6241 22.8937 26.2127 23.5124Z" fill="#F8F8F8"/>
</svg>
